<?xml version="1.0" encoding="UTF-8" standalone="no"?>
<svg
   version="1.0"
   width="50pt"
   height="49.21875pt"
   viewBox="0 0 50 49.21875"
   preserveAspectRatio="xMidYMid meet"
   id="svg8"
   sodipodi:docname="3320941.svg"
   inkscape:version="1.1.2 (0a00cf5339, 2022-02-04)"
   xmlns:inkscape="http://www.inkscape.org/namespaces/inkscape"
   xmlns:sodipodi="http://sodipodi.sourceforge.net/DTD/sodipodi-0.dtd"
   xmlns="http://www.w3.org/2000/svg"
   xmlns:svg="http://www.w3.org/2000/svg">
  <defs
     id="defs12" />
  <sodipodi:namedview
     id="namedview10"
     pagecolor="#ffffff"
     bordercolor="#666666"
     borderopacity="1.0"
     inkscape:pageshadow="2"
     inkscape:pageopacity="0.0"
     inkscape:pagecheckerboard="0"
     inkscape:document-units="pt"
     showgrid="false"
     inkscape:zoom="25.980952"
     inkscape:cx="16.069465"
     inkscape:cy="11.643145"
     inkscape:window-width="2160"
     inkscape:window-height="1187"
     inkscape:window-x="0"
     inkscape:window-y="41"
     inkscape:window-maximized="1"
     inkscape:current-layer="g6" />
  <metadata
     id="metadata2">
Created by potrace 1.15, written by Peter Selinger 2001-2017
</metadata>
  <g
     transform="matrix(0.00195313,0,0,-0.00195313,0,24.609438)"
     fill="#000000"
     stroke="none"
     id="g6">
    <path
       d="m 9079.9768,12562 c -43.9999,-86 -22,-193.999 79.9998,-389.999 109.9997,-207.999 119.9996,-277.999 61.9998,-389.999 -22,-40 -51.9999,-148 -69.9998,-239.999 -51.9999,-276 -165.9996,-475.999 -315.9992,-553.999 -31.9999,-16 -55.9999,-42 -55.9999,-60 0,-60 69.9998,-161.999 211.9995,-307.999 163.9996,-169.999 197.9995,-233.999 163.9996,-309.999 -20,-46 -16,-58 49.9998,-126 125.9997,-127.999 83.9998,-169.999 -61.9998,-64 -85.9998,66 -157.9996,164 -181.9995,254 -18,64 -63.9999,81.999 -233.9994,83.999 -99.9998,2 -127.9997,-6 -159.9996,-39.999 -35.9999,-40 -35.9999,-42 2,-114 23.9999,-46 91.9997,-108 171.9995,-164 73.9998,-50 161.9996,-123.999 195.9995,-163.9993 35.9999,-39.9999 133.9997,-117.9997 217.9995,-171.9995 255.9993,-165.9996 319.9991,-267.9994 285.9992,-451.9989 -37.9999,-203.9995 -109.9997,-197.9995 -349.9991,29.9999 -137.9996,129.9997 -173.9995,155.9996 -183.9995,127.9997 -12,-29.9999 12,-135.9996 55.9999,-247.9994 27.9999,-73.9998 -30,-117.9997 -195.9995,-147.9996 -129.9997,-25.9999 -135.9997,-27.9999 -89.9998,-53.9998 27.9999,-14 139.9996,-32 251.9993,-39.9999 209.9995,-16 349.9991,-59.9999 413.999,-131.9997 83.9998,-95.9998 103.9997,-185.9995 105.9997,-497.9987 2,-211.9995 16,-377.9991 47.9999,-563.9986 25.9999,-145.9996 41.9999,-277.9993 33.9999,-295.9992 -18,-47.9999 -121.9997,13.9999 -389.999,229.9994 -189.9995,151.9996 -279.9993,209.9995 -553.9986,341.9991 -311.9992,149.9996 -585.9985,257.9994 -659.9983,257.9994 -63.9998,0 -165.9996,81.9997 -205.9995,165.9995 -47.9998,97.9998 -93.9997,303.9993 -113.9997,507.9987 -15.9999,169.9996 -41.9999,217.9995 -105.9997,195.9995 -41.9999,-11.9999 -43.9999,-19.9999 -29.9999,-171.9995 6,-85.9998 8,-157.9996 0,-157.9996 -6,0 -63.9999,27.9999 -129.9997,61.9998 -99.9997,51.9999 -123.9997,57.9999 -161.9996,37.9999 -41.9999,-21.9999 -39.9999,-27.9999 95.9998,-165.9996 237.9994,-247.9993 213.9994,-315.9992 -91.9998,-243.9993 -213.9994,49.9998 -433.9989,145.9996 -529.9986,231.9994 -99.9998,87.9997 -145.9997,185.9995 -163.9996,357.9991 -20,187.9995 -79.9998,353.999 -185.9995,515.9986 -51.9999,79.9998 -69.9999,20 -34,-113.9997 32,-113.9997 32,-123.9997 2,-171.9995 -57.9998,-87.9998 -147.9996,-129.9997 -281.9992,-129.9997 -151.9996,0 -317.9992,41.9999 -467.9988,119.9997 l -115.9997,59.9998 -191.9995,-61.9998 c -107.9998,-33.9999 -193.9996,-69.9998 -193.9996,-79.9998 0,-18 57.9999,-27.9999 239.9994,-47.9999 59.9999,-6 149.9997,-19.9999 199.9995,-29.9999 49.9999,-10 209.9995,-31.9999 355.9991,-49.9999 381.999,-43.9999 537.9986,-121.9997 573.9985,-287.9992 18,-83.9998 -7.9999,-117.9997 -141.9996,-189.9995 -63.9998,-34 -119.9997,-77.9998 -123.9997,-97.9998 -6,-31.9999 16,-33.9999 289.9993,-31.9999 317.9992,4 557.9986,-35.9999 725.9981,-121.9997 129.9997,-65.9998 109.9997,-85.9998 -141.9996,-145.9996 -345.9991,-81.9998 -509.9987,-241.9994 -403.999,-391.999 22,-31.9999 31.9999,-81.9998 29.9999,-149.9996 -3.9999,-113.9997 16,-163.9996 63.9999,-145.9997 49.9999,20 145.9996,165.9996 205.9995,315.9992 l 55.9998,137.9997 127.9997,39.9999 c 201.9995,63.9998 389.999,85.9997 661.9983,75.9998 231.9994,-6 257.9993,-12 357.9991,-65.9999 61.9998,-33.9999 147.9996,-105.9997 199.9995,-169.9995 169.9995,-203.9995 487.9987,-501.9987 621.9984,-579.9985 71.9998,-43.9999 263.9993,-137.9997 425.9989,-207.9995 319.9992,-139.9996 433.9989,-211.9995 433.9989,-271.9993 0,-45.9999 -83.9998,-93.9998 -197.9995,-111.9997 -181.9996,-29.9999 -181.9996,-105.9997 4,-149.9996 227.9994,-53.9999 313.9992,-109.9998 313.9992,-207.9995 0,-167.9996 -179.9996,-273.9993 -269.9994,-159.9996 l -41.9998,51.9999 -89.9998,-67.9999 c -137.9997,-105.9997 -219.9995,-141.9996 -319.9992,-139.9996 -91.9998,2 -93.9998,0 -103.9997,-73.9998 -14,-113.9997 -63.9999,-169.9996 -251.9994,-293.9993 -93.9997,-61.9998 -221.9994,-157.9995 -285.9993,-213.9994 -131.9996,-119.9997 -333.9991,-243.9994 -443.9988,-273.9993 -123.9997,-33.9999 -203.9995,-8 -297.9993,95.9997 -45.9998,51.9999 -161.9995,175.9996 -257.9993,275.9993 -97.9997,99.9998 -175.9995,191.9996 -175.9995,203.9995 0,26 -47.9999,45.9999 -113.9997,45.9999 -67.9999,0 -47.9999,-43.9999 31.9999,-71.9998 51.9998,-16 73.9998,-39.9999 93.9997,-99.9998 14,-41.9998 51.9999,-99.9997 83.9998,-127.9996 33.9999,-28 109.9997,-91.9998 169.9996,-143.9997 61.9998,-53.9998 119.9997,-95.9997 133.9996,-95.9997 35.9999,0 141.9997,-185.9995 135.9997,-239.9994 -8,-69.9998 -69.9998,-71.9998 -311.9992,-12 -267.9993,67.9999 -291.9993,67.9999 -197.9995,-9.9999 85.9998,-71.9999 89.9998,-85.9998 29.9999,-125.9997 -127.9997,-81.9998 -543.9986,-77.9998 -687.9982,6 -163.9996,95.9997 -1427.9964,341.9991 -1427.9964,277.9993 0,-8 16,-16 35.9999,-16 81.9998,0 481.9988,-103.9997 575.9986,-149.9996 77.9998,-37.9999 133.9996,-49.9999 239.9994,-49.9999 409.9989,0 667.9982,-127.9997 667.9982,-329.9992 0,-79.9997 -23.9999,-107.9997 -239.9993,-289.9992 -209.9995,-173.9996 -303.9993,-229.9994 -451.9989,-269.9993 -163.9996,-41.9999 -245.9994,-37.9999 -337.9991,19.9999 -99.9998,61.9999 -133.9997,63.9999 -125.9997,8 10,-69.9998 93.9998,-115.9997 263.9993,-139.9996 123.9997,-18 159.9996,-31.9999 165.9996,-59.9999 6,-21.9999 14,-37.9999 19.9999,-37.9999 24,0 213.9995,143.9997 371.9991,283.9993 261.9993,231.9994 299.9992,255.9993 435.9989,287.9993 67.9998,15.9999 213.9994,77.9998 325.9991,135.9996 307.9993,163.9996 507.9987,211.9995 551.9986,131.9997 32,-59.9999 85.9998,-47.9999 199.9995,45.9999 55.9999,45.9998 157.9996,125.9996 221.9995,179.9995 193.9995,151.9996 297.9992,121.9997 297.9992,-85.9998 0,-57.9998 12,-85.9998 43.9999,-107.9997 23.9999,-16 51.9998,-24 61.9998,-18 12,8 16,113.9997 8,283.9993 -16,331.9992 -8,355.9991 139.9996,393.999 145.9997,37.9999 229.9994,83.9998 415.999,227.9994 237.9994,185.9995 379.999,247.9994 579.9985,247.9994 211.9994,2 319.999,-55.9999 397.999,-211.9995 60,-119.9997 64,-205.9994 20,-357.9991 -52,-171.9995 -98,-249.9993 -172,-279.9992 -91.9994,-37.9999 -173.9992,-32 -491.9984,33.9999 -237.9994,47.9998 -291.9992,53.9998 -411.9989,35.9999 -75.9998,-10 -141.9997,-28 -145.9997,-39.9999 -21.9999,-67.9998 475.9988,-169.9996 853.9979,-175.9996 243.9991,-2 279.9991,-7.9999 367.9991,-53.9998 54,-26 126,-83.9998 160,-125.9997 55.999,-67.9998 61.999,-89.9998 61.999,-211.9995 0,-169.9995 -22,-195.9995 -225.999,-281.9992 -229.9995,-95.9998 -487.9988,-153.9997 -1017.9975,-227.9995 -499.9987,-71.9998 -895.9977,-147.9996 -1009.9974,-195.9995 -63.9998,-27.9999 -215.9994,-175.9995 -215.9994,-211.9994 0,-85.9998 255.9993,-77.9998 537.9986,15.9999 177.9995,59.9999 197.9995,61.9999 737.9981,81.9998 567.9986,20 725.9981,35.9999 979.9976,87.9998 441.999,93.9998 663.998,39.9999 663.998,-159.9996 0,-119.9997 -96,-165.9996 -459.999,-219.9994 -259.999,-37.9999 -371.999,-73.9998 -443.9985,-141.9997 -71.9998,-67.9998 -69.9998,-97.9997 8,-137.9996 81.9995,-41.9999 171.9995,-27.9999 369.9995,63.9998 85.999,37.9999 191.999,77.9998 237.999,87.9998 136,29.9999 347.999,-51.9999 229.999,-89.9998 -54,-15.9999 -253.999,-235.9994 -301.999,-329.9991 -46,-89.9998 -52,-159.9996 -12,-159.9996 36,0 148,77.9998 236,167.9996 57.999,57.9998 87.999,73.9998 129.999,67.9998 86,-10 112,-109.9997 122,-485.9988 l 8,-319.9991 62,-65.9999 64,-65.9998 12,-313.9992 c 11.999,-301.9992 13.999,-319.9992 83.999,-489.9988 40,-95.9997 104,-221.99938 144,-275.99925 54,-77.9998 90,-165.99957 150,-383.99901 91.999,-339.99913 129.999,-535.99863 111.999,-583.998507 -22,-59.999847 -255.999,-31.999918 -435.999,53.999861 -241.999,115.999706 -353.999,243.999376 -323.999,365.999066 8,35.99991 -6,87.99977 -50,175.99955 -115.999,231.9994 -189.999,283.99927 -141.999,99.99974 76,-305.99922 66,-405.99896 -46,-405.99896 -114,0 -192,39.9999 -409.999,205.99947 -114,85.99978 -245.9995,173.99956 -291.9994,195.9995 -63.9998,27.99993 -97.9997,59.99985 -135.9996,131.99966 -87.9998,161.99959 -139.9997,359.99908 -141.9997,537.99858 -2,147.9997 4,173.9996 69.9999,309.9993 103.9997,211.9994 223.9994,655.9983 187.9995,693.9982 -24,23.9999 -85.9998,-67.9999 -139.9997,-211.9995 -33.9999,-89.9998 -87.9997,-173.9995 -159.9996,-253.9993 -121.9996,-135.9997 -147.9996,-133.9997 -191.9995,17.9999 -37.9999,135.9997 -89.9997,207.9995 -153.9996,215.9995 -87.9997,9.9999 -85.9997,115.9997 2,313.9992 71.9998,157.9996 89.9998,247.9993 51.9999,271.9993 -45.9999,29.9999 -101.9997,-20 -163.9996,-145.9997 -111.9997,-225.9994 -187.9995,-229.9994 -521.9987,-25.9999 -267.9993,165.9996 -335.9991,187.9995 -865.9977,261.9993 -257.9994,37.9999 -363.9991,109.9998 -415.999,285.9993 -7.9999,23.9999 -31.9999,33.9999 -89.9997,33.9999 -57.9999,0 -141.9997,29.9999 -295.9993,109.9997 -221.9994,113.9997 -245.9994,121.9997 -245.9994,91.9998 0,-49.9999 133.9997,-177.9995 235.9994,-223.9994 135.9997,-61.9999 243.9994,-157.9996 243.9994,-215.9995 0,-69.9998 -69.9998,-89.9997 -257.9993,-71.9998 -177.9996,16 -193.9995,16 -455.9989,10 -121.9996,-4 -207.9994,10 -387.999,57.9998 -127.9996,34 -271.9993,61.9999 -321.9991,61.9999 -107.9998,0 -219.9995,-35.9999 -209.9995,-67.9998 31.9999,-105.9998 629.9984,-205.9995 1093.9972,-181.9996 225.9994,12 273.9993,8 499.9987,-41.9999 193.9995,-39.9999 333.9992,-55.9998 619.9984,-67.9998 423.9989,-16 481.9988,-31.9999 761.9981,-203.9995 91.9997,-55.9998 225.9994,-133.9996 297.9992,-173.9995 177.9996,-99.9998 251.9994,-205.9995 389.999,-559.9986 149.9996,-383.999 163.9996,-435.9989 137.9997,-477.9988 -33.9999,-51.9998 -107.9998,-51.9998 -341.9992,10 -167.9995,41.9999 -247.9993,51.9999 -365.999,45.9999 -267.9993,-12 -423.9989,-8 -753.9981,19.9999 -343.9991,28 -337.9991,28 -737.9981,-63.9998 -119.9997,-25.9999 -213.9995,0 -251.9994,71.9998 -13.9999,22 -29.9999,145.9996 -35.9999,271.9993 -7.9999,125.9997 -23.9999,251.9994 -37.9999,277.9993 -25.9999,47.9999 -25.9999,47.9999 -299.9992,35.9999 -379.999,-15.9999 -587.9985,-79.9998 -741.9981,-223.9994 -67.9998,-65.9998 -73.9998,-65.9998 -169.9996,-47.9999 -153.9996,27.9999 -235.9994,67.9998 -497.9987,235.9994 -133.9996,83.9998 -311.9992,193.9995 -399.999,243.9994 -201.9994,111.9997 -317.9991,215.9994 -371.999,327.9991 -37.9999,79.9998 -41.9999,111.9998 -31.9999,245.9994 33.9999,389.999 35.9999,423.9989 13.9999,423.9989 -11.9999,0 -21.9999,-19.9999 -21.9999,-43.9999 0,-25.9999 -27.9999,-143.9996 -59.9999,-265.9993 -75.9998,-279.9993 -75.9998,-353.9991 0,-495.9987 107.9998,-201.9995 65.9999,-207.9995 -121.9996,-18 -143.9997,147.9997 -217.9995,253.9994 -255.9994,365.9991 -29.9999,91.9998 -181.9995,337.9991 -283.9993,459.9988 -79.9998,95.9998 -303.9992,277.9993 -341.9991,277.9993 -10,0 20,-45.9999 67.9998,-101.9997 241.9994,-283.9993 283.9993,-385.999 187.9996,-449.9989 -39.9999,-23.9999 -83.9998,-27.9999 -225.9995,-19.9999 -95.9997,6 -341.9991,17.9999 -545.9986,25.9999 -411.9989,18 -447.9988,27.9999 -523.9986,157.9996 l -41.9999,69.9998 -45.9999,-43.9999 c -59.9998,-55.9998 -59.9998,-79.9998 -2,-131.9996 115.9997,-105.9998 251.9994,-141.9997 623.9984,-165.9996 301.9992,-18 715.9982,-77.9998 885.9977,-129.9997 133.9997,-39.9999 235.9994,-129.9996 291.9993,-257.9993 55.9999,-121.9997 195.9995,-257.9993 337.9991,-321.9992 57.9999,-25.9999 211.9995,-85.9998 343.9991,-131.9996 293.9993,-101.9998 307.9993,-107.9998 571.9986,-287.9993 213.9994,-145.9996 393.999,-229.9994 493.9987,-229.9994 77.9998,2 197.9995,61.9998 323.9992,163.9996 147.9996,119.9997 221.9994,155.9996 325.9992,155.9996 135.9996,0 201.9994,-32 253.9993,-121.9997 99.9998,-181.9996 31.9999,-391.999 -193.9995,-605.99848 -71.9998,-65.99983 -219.9994,-209.99946 -325.9992,-315.99919 -209.9994,-211.99945 -335.9991,-287.99926 -437.9988,-265.99932 -32,5.99999 -95.9998,47.99988 -143.9997,91.99977 -221.9994,205.99947 -751.998,583.9985 -883.9977,629.99842 -45.9999,15.9999 -105.9997,43.9999 -131.9997,61.9998 -55.9998,35.9999 -461.9988,63.9998 -461.9988,31.9999 0,-11.9999 20,-25.9999 43.9999,-31.9999 79.9998,-21.9999 27.9999,-27.9999 -103.9997,-14 -171.9996,20 -1059.9973,-2 -1059.9973,-23.9999 0,-10 39.9999,-35.9999 89.9997,-57.99985 81.9998,-35.99991 125.9997,-39.9999 441.9989,-33.99991 l 351.9991,5.99998 47.9999,-55.99985 c 25.9999,-29.99993 47.9999,-73.99981 47.9999,-95.99976 0,-45.99988 -18,-45.99988 193.9995,3.99999 95.9997,23.99994 247.9993,43.99989 335.9991,45.99989 189.9995,1.99999 273.9993,-37.99991 345.9991,-165.99958 35.9999,-63.99984 73.9998,-93.99976 189.9995,-149.99962 79.9998,-35.9999 183.9996,-81.99979 233.9994,-99.99974 205.9995,-71.99982 269.9994,-151.99961 219.9995,-269.99931 -22,-57.99985 -22,-57.99985 -245.9994,-65.99983 C 4917.9874,86.032036 4853.9876,74.032066 4609.9882,-5.9677287 4455.9886,-53.967606 4301.989,-101.96748 4265.9891,-107.96747 c -73.9998,-15.99996 -281.9993,7.999982 -715.9982,87.999777 -175.9995,31.999918 -401.999,67.999826 -499.9987,77.9998 -107.9997,13.999965 -275.9993,53.999863 -415.9989,99.999743 -299.9993,101.99974 -395.999,115.9997 -439.9989,71.99982 -20,-17.99996 -33.9999,-45.99989 -33.9999,-59.99985 0,-33.99991 -24,-39.9999 -239.9994,-69.99982 C 1531.9961,48.032133 1349.9965,16.032215 1333.9966,2.0322508 1277.9967,-53.967606 1555.996,-71.96756 1819.9953,-29.967667 c 645.9984,99.999744 615.9985,95.999754 889.9978,73.99981 183.9995,-15.999959 367.999,-49.9998717 629.9983,-113.999708 203.9995,-51.999865 441.9989,-97.999745 529.9987,-103.999735 245.9994,-17.99995 349.9991,-93.99976 349.9991,-255.99934 0,-159.99959 -125.9997,-257.99934 -319.9992,-245.99937 -63.9998,1.99999 -121.9997,0 -129.9997,-5.99999 -5.9999,-7.99998 16,-35.99991 49.9999,-65.99983 47.9999,-39.9999 83.9998,-51.99987 157.9996,-51.99987 107.9997,0 155.9996,39.9999 251.9994,209.99947 29.9999,55.99985 123.9997,167.99957 209.9994,251.99935 249.9994,245.999371 315.9992,261.99933 1019.9974,235.9994 231.9994,-9.99998 299.9993,19.999946 559.9986,227.99941 93.9997,75.99981 203.9995,155.9996 243.9994,179.99954 39.9999,23.99994 79.9998,63.99984 85.9997,87.99978 6,25.99993 37.9999,77.9998 73.9999,115.9997 81.9997,93.99976 163.9995,91.99976 229.9994,-7.99998 67.9998,-101.99974 63.9998,-253.99935 -14,-405.99896 -31.9999,-63.999836 -59.9998,-125.999677 -59.9998,-137.999647 0,-73.999813 79.9998,-169.999563 229.9994,-277.999283 169.9995,-123.99969 289.9992,-241.99939 289.9992,-287.99927 0,-17.99995 49.9999,-29.99992 175.9996,-37.9999 95.9997,-7.99998 225.9994,-19.99995 289.9992,-25.99993 71.9998,-7.99998 113.9997,-5.99999 113.9997,5.99998 0,29.99992 -179.9995,111.99971 -359.999,165.99958 -305.9993,91.99976 -377.9991,143.99963 -419.999,299.99923 -43.9999,159.999588 33.9999,305.99921 197.9995,377.99903 55.9999,23.99994 109.9997,59.99985 119.9997,79.9998 22,39.99989 0,145.99962 -39.9999,193.9995 -19.9999,23.99994 -17.9999,35.99991 8,61.99984 29.9999,29.99992 129.9997,33.99991 947.9976,33.99991 693.9982,2 935.9976,-3.99999 999.9974,-23.99994 71.9998,-21.99994 107.9997,-53.99986 227.9994,-209.99946 79.9998,-101.99974 197.9995,-263.999322 263.9994,-363.999066 65.9998,-97.999754 143.9996,-207.999464 171.9995,-241.999384 27.9999,-33.99991 67.9998,-89.99977 85.9998,-125.99967 31.9999,-59.99985 39.9999,-61.99985 161.9993,-61.99985 148,0 214,-43.99988 214,-139.99964 0,-119.99969 -110,-163.99958 -250,-101.99974 -51.9995,23.99994 -115.9993,41.9999 -139.9993,41.9999 -25.9999,0 -165.9995,61.99984 -313.9992,135.99965 -295.9992,153.9996 -437.9988,197.99949 -521.9986,165.99957 -117.9997,-45.99988 -47.9999,-117.99969 281.9993,-289.99925 123.9996,-63.99984 245.9993,-143.99964 273.9992,-173.99956 97.9998,-117.9997 383.9991,-341.99911 523.9986,-411.99891 128,-63.9999 162,-71.9998 299.999,-71.9998 116,0 202,13.9999 329.999,53.9998 198,61.9999 248,59.9999 403.999,-23.9999 138,-75.9998 298,-261.9994 401.999,-473.9988 84,-167.9996 90,-193.9995 102,-389.999 10,-179.9996 4,-261.9993 -50,-579.9985 -91.999,-537.9987 -87.999,-519.9987 -249.999,-829.9979 -54,-101.9997 -54,-107.9997 -46,-437.9989 6,-183.9995 -14,-185.9995 -331.999,-25.9999 -148,73.9998 -281.999,133.9996 -297.999,133.9996 -42,0 -551.999,223.9995 -727.9985,317.9992 -151.9996,81.9998 -491.9987,335.9992 -675.9982,503.9987 -59.9999,53.9999 -141.9997,147.9997 -181.9996,207.9995 -121.9997,183.9995 -319.9992,269.9993 -627.9984,269.9993 -311.9992,0 -565.9985,-97.9997 -807.9979,-315.9992 -211.9995,-191.9995 -261.9993,-211.9994 -451.9988,-195.9995 -189.9996,18 -333.9992,79.9998 -421.999,185.9995 -63.9998,75.9999 -291.9992,471.9988 -383.999,665.9983 -21.9999,49.9999 -73.9998,219.9995 -111.9997,379.9991 -37.9999,159.9996 -77.9998,315.9992 -89.9998,345.9991 -31.9999,91.9997 -35.9999,47.9999 -3.9999,-57.9999 39.9999,-131.9996 37.9999,-185.9995 -20,-407.9989 -75.9998,-293.9993 -71.9998,-329.9992 65.9998,-503.9987 65.9999,-79.9998 141.9997,-187.9996 169.9996,-237.9994 99.9997,-169.9996 65.9998,-177.9996 -155.9996,-37.9999 -149.9996,93.9997 -229.9994,123.9997 -229.9994,81.9998 0,-10 83.9998,-93.9998 185.9995,-183.9996 99.9998,-91.9997 241.9994,-225.9994 313.9992,-297.9992 71.9998,-71.9998 155.9996,-147.9996 185.9995,-167.9996 30,-17.9999 65.9999,-57.9998 79.9998,-85.9998 18,-41.9998 16,-53.9998 -15.9999,-77.9998 -77.9998,-57.9998 -317.9992,-21.9999 -399.999,59.9999 -27.9999,27.9999 -69.9998,43.9999 -125.9997,45.9999 -97.9997,4 -241.9994,71.9998 -417.9989,197.9995 -131.9997,93.9997 -153.9996,85.9997 -83.9998,-30 49.9999,-83.9997 25.9999,-107.9997 -89.9998,-91.9997 -115.9997,17.9999 -169.9995,67.9998 -291.9992,269.9993 -119.9997,199.9995 -187.9995,261.9993 -285.9993,267.9993 -57.9998,2 -63.9998,-4 -69.9998,-61.9998 -6,-55.9999 14,-85.9998 163.9996,-243.9994 93.9997,-97.9998 171.9995,-191.9995 171.9995,-205.9995 0,-49.9999 -29.9999,-71.9998 -181.9995,-141.9996 -163.9996,-73.9998 -209.9995,-113.9997 -133.9997,-113.9997 75.9998,0 339.9992,79.9998 429.9989,129.9996 77.9998,41.9999 89.9998,43.9999 195.9995,20 61.9999,-16 123.9997,-37.9999 139.9997,-49.9999 15.9999,-12 35.9999,-17.9999 45.9999,-14 7.9999,6 27.9999,4 41.9999,-5.9999 19.9999,-12 5.9999,-30 -57.9999,-69.9999 -45.9999,-27.9999 -77.9998,-57.9998 -71.9998,-63.9998 6,-6 77.9998,0 159.9996,14 143.9996,23.9999 149.9996,23.9999 395.999,-47.9999 363.999,-105.9997 525.9986,-97.9998 675.9982,37.9999 28,23.9999 221.9995,115.9997 429.9989,205.9995 727.9982,311.9992 857.9978,337.9991 1101.9972,213.9994 75.9998,-37.9999 203.9995,-121.9997 281.9993,-187.9995 79.9998,-65.9998 171.9995,-123.9997 205.9995,-131.9997 31.9999,-7.9999 81.9998,-41.9999 111.9997,-75.9998 l 51.9998,-61.9998 -13.9999,-247.9994 c -16,-281.9992 2,-333.9991 113.9997,-351.9991 35.9999,-6 155.9996,-25.9999 265.9993,-43.9999 231.9994,-37.9999 421.9989,-103.9997 533.9984,-185.9995 42,-31.9999 130,-127.9997 194,-213.9994 62,-87.9998 215.999,-283.9993 339.999,-435.9989 124,-153.9996 241.999,-311.9992 261.999,-353.9991 22,-41.9999 116,-157.9996 210,-257.9993 93.999,-99.9998 193.999,-229.9995 223.999,-285.9993 58,-113.9997 56,-81.9998 106,-1443.9963 12,-307.9992 32,-797.998 44,-1089.9972 30,-671.9983 26,-845.9979 -24,-1145.9971 -24,-133.9997 -50,-347.9991 -58,-473.9991 -14,-185.999 -26,-249.999 -68,-331.999 -66,-130 -241.999,-289.999 -399.999,-365.999 -275.999,-132 -1085.9971,-327.999 -1905.995,-461.999 -273.9993,-44 -619.9984,-113.999 -767.998,-151.999 -315.9992,-84 -395.999,-104 -529.9987,-132 -53.9998,-10 -571.9985,-28 -1149.997,-38 -1329.9966,-22 -1957.995,-46 -2205.9944,-86 -109.9997,-18 -319.9992,-42 -469.9988,-54 -151.9996,-12 -443.9989,-37.999 -653.9983,-59.999 -207.9995,-20 -473.9988,-42 -589.9985,-48 -115.9997,-8 -361.9991,-34 -549.9986,-60 -185.9995,-26 -433.9989,-56 -549.9986,-70 -115.9997,-12 -317.9992,-40 -449.9988,-60 -279.99932,-44 -463.99885,-68 -739.99814,-100 -109.99972,-11.999 -229.999416,-25.999 -265.999324,-31.999 L 0,-12241.936 v -178 -179.999 h 12799.967 12799.967 v 517.998 517.999 l -223.999,12 c -787.998,42 -1127.997,54 -1805.995,62 -417.999,4 -929.998,14 -1139.997,20 -637.999,22 -2969.993,55.999 -3859.991,57.999 -461.998,2 -1143.997,-10 -1513.996,-23.999 -701.998,-28 -699.998,-28 -1259.996,47.999 -294,42 -607.999,120 -707.999,178 -159.999,94 -445.998,329.999 -587.998,487.999 -116,127.999 -180,177.999 -305.999,243.999 -188,98 -304,196 -331.999,283.999 -34,102 -108,789.9983 -142,1313.997 -66,1017.9974 -82,1439.9963 -98,2503.9936 -18,1181.997 -14,1337.9966 50,1589.9959 104,417.9989 271.999,667.9983 581.999,871.9978 187.999,123.9997 305.999,233.9994 511.998,477.9988 l 94,113.9997 66,-35.9999 c 193.999,-113.9998 397.999,-43.9999 789.998,267.9993 70,55.9998 104,69.9998 177.999,69.9998 130,0 210,-45.9999 363.999,-213.9995 128,-137.9996 140,-145.9996 152,-103.9997 30,91.9998 14,255.9993 -28,325.9992 -52,81.9998 -108,121.9997 -219.999,151.9996 -116,29.9999 -274,-16 -371.999,-107.9997 -90,-85.9998 -166,-105.9998 -248,-61.9999 -80,39.9999 -129.999,117.9997 -129.999,201.9995 0,85.9998 41.999,129.9997 161.999,167.9996 88,27.9999 100,41.9999 224,245.9993 167.999,273.9993 401.999,515.9987 401.999,413.999 0,-10 21.999,-33.9999 47.999,-49.9999 98,-63.9998 174,14 328,333.9991 l 83.999,173.9996 136,43.9999 c 84,27.9999 207.999,47.9999 329.999,53.9999 240,9.9999 337.999,-20 483.999,-155.9996 177.999,-167.9996 183.999,-169.9996 659.998,-171.9996 232,-2 437.999,4 461.999,14 70,23.9999 160,127.9996 253.999,291.9992 162,279.9993 302,381.999 555.999,399.999 162,13.9999 247.999,-12 341.999,-101.9998 120,-113.9997 361.999,-139.9996 521.999,-57.9998 98,49.9999 54,75.9998 -148,85.9998 -147.999,8 -203.999,19.9999 -259.999,55.9998 -184,113.99974 -130,347.99914 102,449.99888 49.999,21.99994 153.999,77.9998 229.999,125.99968 177.999,107.99972 287.999,147.99962 417.999,147.99962 146,0 215.999,-49.99987 299.999,-213.99945 96,-191.99951 240,-375.99904 369.999,-471.99883 62,-45.9998 116,-89.9997 118,-99.9997 30,-63.9998 337.999,-139.9997 483.999,-119.9997 157.999,23.9999 143.999,79.9998 -36,135.9996 -62,20 -132,51.9999 -154,69.9999 -22,19.9999 -124,81.99976 -227.999,139.99961 -224,125.99968 -327.999,225.99942 -371.999,361.99907 -36,103.99974 -44,219.99944 -20,255.99935 38,61.99984 147.999,89.99977 419.999,103.99973 393.999,21.99995 571.998,45.99989 855.997,115.999706 134,33.999913 310,65.999831 387.999,73.9998104 l 142,13.9999642 60,191.9995094 c 34,105.99973 68,221.99943 74,257.99934 22,109.99972 -38,77.9998 -144,-75.99981 -118,-171.99956 -183.999,-207.99946 -443.999,-239.99938 -103.999,-13.99997 -223.999,-35.99991 -267.999,-51.999869 -118,-41.999893 -357.999,-35.999908 -413.999,7.999979 -34,27.99993 -42,49.99987 -34,85.99978 20,79.9998 233.999,309.99921 373.999,403.99897 72,47.99987 196,133.99965 277.999,189.99951 90,63.99984 170,103.99973 204,103.99973 h 54 l -10,245.9994 c -12,305.9992 38,821.9979 84,873.9977 41.999,45.9999 161.999,79.9998 283.999,79.9998 102,0 165.999,39.9999 165.999,101.9998 0,55.9998 72,155.9996 160,221.9994 50,37.9999 184,129.9997 299.999,205.9995 252,165.9995 463.999,369.999 383.999,369.999 -10,0 -68,-53.9998 -129.999,-119.9997 -78,-79.9998 -130,-119.9997 -162,-119.9997 -58,0 -78,41.9999 -50,111.9998 10,29.9999 14,57.9998 8,63.9998 -4,6 -134,-113.9997 -283.999,-265.9993 -459.999,-461.9988 -443.999,-449.9989 -633.999,-449.9989 -153.999,0 -227.999,-27.9999 -245.999,-95.9997 -6,-26 -4,-117.9997 4,-201.9995 22,-203.9995 16,-349.9991 -22,-479.9988 -76,-267.9993 -161.999,-271.9993 -225.999,-12 -12,43.9999 -44,143.9997 -70,219.9995 -64,173.9995 -68,343.9991 -12,465.9988 24,53.9999 50,83.9998 76,83.9998 44,0 119.999,51.9998 99.999,69.9998 -6,8 -41.999,-2 -77.999,-20 -54,-27.9999 -78,-29.9999 -140,-11.9999 -68,19.9999 -197.999,139.9996 -197.999,181.9995 0,73.9998 127.999,159.9996 239.999,159.9996 128,0 84,113.9997 -68,175.9996 -92,35.9999 -150,143.9996 -154,283.9992 0,49.9999 -7.999,111.9997 -15.999,135.9997 -12,45.9999 -14,45.9999 -44,10 -54,-61.9999 -56,-97.9998 -8,-197.9995 79.999,-167.9996 79.999,-221.9995 10,-355.9991 -74,-135.9997 -74,-117.9997 42,-551.9986 41.999,-159.9996 81.999,-363.9991 89.999,-453.9989 16,-181.9995 20,-175.9995 -141.999,-189.9995 -94,-9.9999 -90,-67.9998 8,-83.9998 44,-5.9999 83.999,-19.9999 91.999,-31.9999 6,-9.9999 -14,-63.9998 -43.999,-119.9997 l -56,-101.9997 54,-45.9999 c 29.999,-25.9999 63.999,-51.99985 75.999,-55.99984 14,-3.99999 10,-39.9999 -10,-111.99972 -24,-79.99979 -59.999,-133.99965 -135.999,-209.99946 -164,-163.99958 -509.999,-449.99885 -711.998,-589.998488 l -108,-73.9998105 h -262 -261.999 L 20453.948,-115.96745 c -214,-113.99971 -286,-125.99967 -347.999,-57.99985 -48,51.99987 -126,221.999433 -126,275.99929 0,55.99986 70,81.99979 255.999,93.99976 136,7.99998 178,17.99996 220,53.99987 l 51.999,43.99988 -33.999,87.99978 c -18,49.99987 -70,135.99965 -112,193.9995 -102,133.99966 -122,243.99938 -66,367.99906 48,107.99976 140,187.99956 249.999,215.99946 58,15.9999 108,47.9999 158,105.9997 42,45.9999 68,85.9998 58,89.9998 -8,2 -100,-37.9999 -202,-89.9998 -139.999,-69.9998 -211.999,-95.9997 -299.999,-101.9997 -108,-8 -118,-4 -175.999,57.9998 -58,61.9999 -60,69.9998 -50,205.9995 8,111.9997 4,147.9996 -18,167.9996 -64,51.9998 -136,-33.9999 -136,-165.9996 0,-37.9999 40,-169.9996 90,-293.9993 50,-123.9996 102,-283.99923 114,-355.99904 20,-117.9997 18,-139.99964 -16,-211.99946 l -38,-77.9998 -148,-3.99999 c -255.999,-7.99998 -289.999,-73.99981 -191.999,-379.99903 119.999,-373.99904 18,-579.99851 -377.999,-765.99803 -156,-73.99982 -226,-121.99969 -312,-209.99947 -387.999,-399.99898 -743.998,-537.99858 -1031.997,-395.99898 -136,65.9998 -391.999,327.99916 -427.999,435.99888 -54,165.99958 32,365.99906 239.999,551.99859 156,139.99964 186,203.999475 186,379.99902 -2,135.99966 -40,225.99943 -100,233.99941 -56,7.99998 -109.999,-51.99987 -185.999,-209.99947 -34,-71.999812 -122,-215.999444 -198,-323.99917 -76,-105.99973 -163.999,-245.99937 -197.999,-311.9992 -112,-225.99942 -305.999,-395.99898 -567.999,-501.99876 -68,-27.9999 -143.999,-77.9998 -171.999,-111.9997 -56,-65.9998 -226,-155.9996 -298,-155.9996 -26,0 -63.999,18 -87.999,41.9999 -58,57.9999 -40,129.9997 79.999,327.99919 202,331.99915 316,689.99823 218,689.99823 -70,-2 -371.999,-523.99866 -403.999,-699.99821 -16,-83.99981 -142,-381.99901 -204,-479.99881 -77.999,-125.9996 -159.999,-185.9995 -251.999,-191.9995 -66,-2 -92,-13.9999 -122,-59.9998 -107.999,-155.9996 -287.999,-307.9992 -363.999,-307.9992 -56,0 -70,33.9999 -70,169.9995 0,57.9999 -15.999,139.9997 -33.999,181.9996 -44,103.9997 -44,571.9985 0,711.99815 28,89.99977 28,93.99976 -6,75.99981 -58,-31.99992 -114,-113.99971 -150,-221.99946 -50,-147.9996 -36,-415.9989 30,-547.9986 94,-191.9995 54,-441.9988 -98,-615.9984 -72,-79.9998 -293.999,-225.9994 -451.999,-295.9992 -103.999,-45.9999 -585.998,-217.9995 -611.998,-217.9995 -8,0 -18,29.9999 -22,65.9999 -6,33.9999 -34,143.9996 -62,239.9993 -54,179.9996 -108,597.9985 -86,679.9983 18,73.9998 351.999,413.9989 583.999,595.9985 118,91.9997 321.999,269.99928 453.999,393.99896 309.999,295.99924 589.998,527.99865 757.998,627.99839 113.999,67.999829 161.999,83.999788 299.999,97.999752 207.999,23.9999386 381.999,77.9998 583.998,183.999528 168,89.99977 563.999,377.99903 765.998,559.99857 196,175.99955 200,175.99955 1039.998,495.9987 207.999,79.9998 187.999,137.9997 -52,137.9997 -188,0 -389.999,-33.9999 -487.999,-83.9998 -42,-20 -203.999,-89.9998 -359.999,-153.9996 -155.999,-65.9998 -345.999,-145.99964 -421.999,-181.99955 -175.999,-79.9998 -363.999,-127.99967 -731.998,-179.99954 -389.999,-57.99985 -785.998,-161.99958 -1043.997,-273.9993 -130,-57.99985 -162,-51.99987 -206,33.99991 -28,55.99986 -28,65.99984 2,129.99967 18,39.9999 90,121.99969 160,181.99954 70,61.99984 155.999,157.99959 189.999,215.99947 92,147.9996 244,339.9991 419.999,521.9986 120,125.9997 160,183.9996 188,269.9993 114,355.9991 265.999,477.9988 565.998,453.9989 260,-22 651.999,-133.9997 969.998,-277.9993 219.999,-99.9997 351.999,-135.9997 493.999,-133.9997 121.999,0 119.999,0 559.998,183.9996 745.998,311.9992 687.998,279.9993 741.998,403.9989 18,43.9999 50,181.9996 68,307.9992 38,259.9994 54,311.9992 118,381.9991 26,27.9999 76,99.9997 112,159.9996 93.999,155.9996 227.999,327.9991 379.999,485.9987 121.999,129.9997 129.999,143.9996 129.999,229.9994 0,69.9998 -24,145.9997 -96,297.9993 -95.999,201.9994 -123.999,311.9992 -147.999,557.9985 -14,153.9996 24,241.9994 149.999,343.9992 50,39.9998 138,115.9997 194,167.9995 68,63.9999 189.999,135.9997 375.999,225.9994 329.999,159.9996 413.999,219.9995 651.998,473.9988 196,207.9995 276,265.9993 407.999,305.9992 74,22 90,37.9999 140,137.9997 72,145.9996 90,231.9994 48,231.9994 -30,0 -174,-99.9997 -273.999,-189.9995 -28,-24 -82,-49.9999 -122,-57.9999 -40,-7.9999 -144,-55.9998 -230,-109.9997 -87.999,-53.9998 -195.999,-121.9997 -243.999,-151.9996 -48,-29.9999 -116,-57.9998 -154,-63.9998 -79.999,-12 -89.999,2 -149.999,223.9994 -22,85.9998 -52,173.9995 -62,195.9995 -20,35.9999 -24,35.9999 -54,6 -26,-26 -34,-77.9998 -38,-237.9994 -2,-111.9997 -4,-223.9994 -6,-247.9994 0,-73.9998 -100,-165.9996 -279.999,-255.9993 -156,-77.9998 -279.999,-179.9996 -279.999,-231.9994 0,-45.9999 -40,-10 -82,77.9998 -48,99.9997 -50,151.9996 -40,873.9977 6,327.9992 76,1079.9973 112,1189.997 18,49.9999 83.999,175.9995 149.999,279.9993 66,103.9997 136,239.9994 154,299.9992 90,307.9992 233.999,765.998 279.999,885.9977 44,117.9997 46,143.9997 26,193.9995 -30,71.9999 -58,75.9998 -114,16 -95.999,-105.9997 -195.999,-363.9991 -235.999,-605.9985 -48,-295.9992 -148,-569.9985 -209.999,-569.9985 -12,0 -36,33.9999 -54,75.9998 -26,61.9999 -28,97.9998 -8,233.9994 12,87.9998 32,327.9992 42,531.9987 20,371.999 28,419.9989 147.999,837.9978 48,169.9993 42,319.9993 -18,401.9993 -85.999,119.999 -189.999,277.999 -189.999,291.999 0,18 -66,64 -94,66 -48,0 -26,-80 74,-280 92,-181.999 100,-211.999 100,-339.999 0,-95.999 -24,-231.9991 -78,-443.9985 -44,-167.9996 -88,-403.999 -102,-525.9987 -12,-119.9997 -36,-305.9992 -52,-409.9989 -20,-121.9997 -28,-279.9993 -24,-437.9989 6,-211.9995 2,-249.9994 -28,-267.9993 -52,-33.9999 -177.999,14 -283.999,107.9997 -154,135.9997 -162,159.9996 -152,527.9987 14,565.9985 10,633.9983 -30,709.9981 l -37.999,69.9999 -14,-69.9999 c -8,-37.9999 -18,-321.9991 -20,-631.9983 -8,-661.9983 -18,-623.9984 241.999,-827.9979 196,-151.9996 223.999,-205.9995 194,-361.9991 -22,-109.9997 -38,-119.9997 -70,-47.9999 -12,28 -34,49.9999 -46,49.9999 -18,0 -20,-59.9998 -6,-243.9994 28,-403.9989 20,-563.9985 -38,-801.9979 -98,-397.999 -102,-445.9989 -46,-719.9982 86,-415.9989 138,-955.9975 126,-1333.9966 -10,-363.999 -34,-463.9988 -134,-545.9986 -118,-93.9997 -391.999,-593.9984 -459.999,-837.9978 -50,-185.9995 -123.999,-289.9993 -257.999,-369.9991 -194,-115.9997 -337.999,-151.9996 -567.999,-141.9996 -243.999,10 -355.999,47.9999 -617.998,201.9995 -241.999,143.9996 -307.999,199.9995 -363.999,311.9992 -86,169.9995 -84,331.9991 6,429.9989 20,23.9999 46,97.9997 60,171.9995 42,251.9994 189.999,373.9991 521.998,429.9989 216,35.9999 425.999,125.9997 551.999,237.9994 54,45.9999 118,135.9997 180,255.9994 51.999,101.9997 181.999,317.9992 291.999,477.9987 108,159.9996 195.999,301.9993 195.999,313.9992 0,36 -99.999,67.9999 -169.999,55.9999 -34,-8 -94,-45.9999 -134,-87.9998 -86,-87.9998 -223.999,-335.9991 -265.999,-479.9987 -56,-189.9996 -220,-259.9994 -371.999,-157.9996 -96,63.9998 -146,173.9995 -142,323.9991 2,153.9996 54,291.9993 172,459.9989 99.999,137.9996 191.999,317.9991 191.999,373.999 0,79.9998 -48,45.9999 -187.999,-131.9997 -84,-103.9997 -192,-221.9994 -242,-263.9993 -151.999,-123.9997 -203.999,-271.9993 -161.999,-455.9988 32,-133.9997 69.999,-203.9995 183.999,-333.9992 200,-233.9994 160,-289.9992 -253.999,-369.999 -96,-18 -208,-53.9999 -250,-79.9998 -179.999,-107.9997 -237.999,-131.9997 -319.999,-133.9997 -159.999,-2 -219.999,97.9998 -197.999,333.9992 24,255.9993 12,441.9988 -40,721.9981 -46,239.9994 -72,345.9991 -158,649.9984 -36,127.9996 -42,355.999 -10,469.9988 26,89.9997 136,209.9994 192,209.9994 22,0 56,18 78,41.9999 44,47.9999 179.999,119.9997 297.999,157.9996 195.999,61.9998 309.999,143.9996 339.999,237.9994 12,41.9999 10,45.9999 -22,33.9999 -22,-10 -88,-19.9999 -148,-25.9999 -183.999,-18 -203.999,55.9998 -71.999,247.9993 40,59.9999 85.999,165.9996 111.999,261.9994 56,207.9994 150,365.999 296,497.9987 l 113.999,103.9997 -2,125.9997 c -2,69.9998 -20,199.9995 -38,289.9993 -32,161.9995 -36,243.9993 -30,635.9983 4,195.9995 -16,327.9992 -97.999,707.9982 -24,103.9998 -42,219.9999 -42,257.9989 0,86 -42,76 -66,-14 -10,-41.999 -8,-89.9993 6,-133.9992 32,-95.9997 12,-187.9995 -62,-279.9992 -78,-97.9998 -118,-173.9996 -118,-223.9995 0,-21.9999 30,-83.9998 68,-139.9996 126,-181.9995 138,-349.9991 48,-693.9982 -22,-87.9998 -42,-227.9995 -44,-309.9992 -2,-177.9996 -40,-207.9995 -111.999,-89.9998 -118,189.9995 -220,99.9997 -220,-199.9995 0,-131.9997 -100,-563.9986 -201.999,-875.9978 -74,-221.9994 -144,-317.9991 -292,-397.9989 -133.999,-73.9998 -237.999,-87.9998 -325.999,-41.9999 -38,19.9999 -80,57.9998 -92,85.9998 -43.999,91.9997 -171.999,665.9982 -189.999,857.9978 -48,473.9987 -56,395.9989 78,731.9981 24,59.9998 32,153.9996 34,389.999 0,295.9992 2,315.9992 55.999,439.9989 134,305.9992 138,329.9991 146,659.9983 2,169.9999 14,363.9989 26,429.9989 24,134 28,409.999 10,507.999 -18,87.999 -80,117.999 -134,65.999 -32,-33.999 -44,-83.999 -59.999,-267.999 -10,-124 -26,-245.999 -36,-269.999 -26,-68 -86,-56 -152,26 -140,177.999 -215.999,235.999 -475.999,359.999 -269.999,128 -309.999,134 -309.999,40 0,-62 62,-112 255.999,-212 174,-89.999 244,-155.999 244,-229.999 0,-62 60,-132 205.999,-235.999 238,-170 244,-221.9999 32,-245.9999 -148,-15.9999 -149.999,-39.9999 -18,-195.9995 112,-129.9996 144,-179.9995 126,-199.9994 -26,-26 -162,-10 -339.999,41.9999 -274,79.9997 -290,43.9998 -92,-215.9995 56,-69.9998 114,-155.9996 132,-187.9995 45.999,-89.9998 59.999,-297.9992 34,-489.9988 -14,-93.9997 -38,-283.9992 -58,-423.9989 -38,-287.9992 -64,-339.9991 -152,-299.9992 -28,12 -199.999,165.9996 -381.999,337.9991 -329.999,313.9992 -493.999,445.9989 -667.998,535.9987 -50,25.9999 -136,93.9997 -194,153.9996 -161.999,167.9995 -381.999,475.9987 -417.999,585.9985 -71.999,215.9994 -197.999,409.9989 -267.999,409.9989 -40,0 -64,-85.9998 -50,-173.9995 24,-161.9996 28,-225.9995 16,-225.9995 -10,0 -66,41.9999 -126,91.9998 -131.999,107.9997 -279.999,187.9995 -349.999,187.9995 -115.999,0 -169.999,-79.9998 -93.999,-143.9996 18,-16 109.999,-69.9998 201.999,-117.9997 94,-47.9999 198,-117.9997 229.999,-153.9996 34,-35.9999 88,-89.9998 122,-119.9997 234,-213.9995 369.999,-353.9991 461.999,-477.9988 114,-151.9996 128,-159.9996 527.999,-341.9991 71.999,-31.9999 157.999,-87.9998 189.999,-123.9997 34,-35.9999 160,-169.9996 281.999,-297.9992 240,-251.9994 284,-309.9992 334,-433.9989 15.999,-43.9999 107.999,-259.9994 203.999,-477.9988 140,-317.9992 198,-429.9989 301.999,-565.9985 142,-183.9996 212,-309.9992 246,-433.9989 34,-129.9997 79.999,-747.9981 91.999,-1219.9969 4,-241.9994 18,-493.9987 28,-559.9986 10,-65.9998 34,-213.9994 50,-329.9991 18,-115.9997 44,-241.9994 56,-279.9993 36,-99.9998 28,-411.999 -10,-503.9987 -54,-129.9997 -76,-107.9997 -175.999,177.9995 -250,705.9982 -248,701.9982 -236,939.9976 4,81.9998 -84,193.9995 -231.999,295.9993 -148,101.9997 -168,73.9998 -68,-89.9998 165.999,-277.9993 313.999,-893.9977 259.999,-1093.9972 -24,-91.9998 -88,-149.9996 -139.999,-131.9997 -86,29.9999 -166,151.9996 -190,291.9993 -8,39.9999 -36,117.9997 -60,169.9995 -26,51.9999 -90,197.9995 -141.999,323.9992 -50,125.9997 -112,261.9993 -134,299.9992 -44,75.9999 -106,277.9993 -176,579.9986 -24,103.9997 -75.999,293.9992 -115.999,419.9989 -64,209.9994 -80,237.9994 -172,329.9991 -76,75.9998 -144,117.9997 -261.999,167.9996 -88,33.9999 -178,71.9998 -202,81.9998 -58,23.9999 -209.999,231.9994 -319.999,437.9989 -52,93.9997 -118,211.9994 -146,261.9993 -91.999,151.9996 -103.999,215.9995 -121.999,579.9985 -12,245.9994 -28,375.9991 -52,439.9989 -18,49.9999 -36,153.9996 -38,231.9994 -4,159.9996 -16,187.9995 -72,187.9995 -48,0 -157.999,-101.9997 -157.999,-145.9996 0,-16 36,-63.9998 77.999,-107.9997 130,-127.9997 142,-225.9994 88,-641.9984 -32,-245.9994 -38,-265.9993 -80,-275.9993 -77.999,-19.9999 -157.999,29.9999 -245.999,153.9996 -46,63.9999 -90,117.9997 -100,117.9997 -22,0 -60,-129.9996 -60,-203.9995 0,-87.9997 -51.999,-121.9996 -167.999,-109.9997 -96,8 -108,16 -271.999,189.9995 -134,143.9997 -186,185.9996 -250,201.9995 -171.999,43.9999 -227.999,129.9997 -289.999,453.9989 -24,119.9997 -66,267.9993 -94,327.9991 -112,243.9994 -129.999,387.999 -135.999,1009.9974 -2,519.9987 -12,609.9985 -84,775.9981 -62,145.9996 -156,57.9998 -110,-101.9998 48,-169.9996 68,-391.999 60,-663.9983 -6,-221.9994 -16,-287.9992 -40,-313.9992 -18,-17.9999 -46,-25.9999 -62,-19.9999 -16,6 -76,105.9997 -132,219.9994 -101.999,209.9995 -131.999,243.9994 -181.999,213.9995 -34,-20 22,-161.9996 162,-411.999 149.999,-263.9993 277.999,-539.9986 277.999,-597.9985 0,-27.9999 12,-75.9998 28,-105.9997 58,-113.9997 58,-141.9996 4,-163.9996 -66,-23.9999 -66,-77.9998 -4,-175.9995 28,-39.9999 86,-159.9996 131.999,-263.9993 112,-261.9994 194,-367.9991 336,-435.9989 61.999,-29.9999 171.999,-103.9998 243.999,-159.9996 215.999,-173.9996 307.999,-207.9995 601.998,-221.9994 230,-12 258,-16 334,-67.9999 189.999,-123.9997 261.999,-323.9991 151.999,-411.9989 -72,-55.9999 -211.999,-53.9999 -443.999,6 -101.999,25.9999 -187.999,39.9999 -193.999,31.9999 -10,-18 169.999,-179.9996 241.999,-215.9995 80,-41.9999 236,-45.9998 407.999,-13.9999 94,17.9999 222,35.9999 283.999,43.9999 108,9.9999 116,7.9999 134,-37.9999 10,-26 132,-189.9996 269.999,-365.9991 214,-271.9993 252,-329.9992 252,-389.999 0,-119.9997 38,-213.9995 153.999,-381.999 140,-205.9995 166,-269.9993 166,-405.999 0,-243.9994 48,-399.999 267.999,-851.9978 262,-539.9986 293.999,-667.9983 214,-825.9979 -20,-39.9999 -84,-115.9997 -142,-167.9996 -84,-75.9998 -124,-137.9996 -223.999,-343.9991 -66,-137.9996 -150,-291.9992 -186,-341.9991 -36,-49.9999 -124,-199.9995 -195.999,-335.9991 -74,-133.9997 -190,-315.9992 -260,-401.999 -123.999,-151.99963 -331.999,-453.99885 -441.999,-645.99836 -105.999,-181.99954 -337.999,-395.998989 -431.999,-395.998989 -45.999,0 -79.999,83.999789 -79.999,197.999489 0,87.99978 8,103.99974 75.999,161.99959 40,33.99991 118,91.99976 174,125.99968 140,89.99977 190,171.99956 190,311.9992 0,145.99959 63.999,279.99929 217.999,467.99879 64,79.9998 138,183.9995 162,231.9994 24,47.9999 97.999,155.9996 163.999,239.9994 150,185.9995 224,341.9991 287.999,595.9985 102,411.9989 100,737.9981 -2,963.9975 -91.999,197.9995 -111.999,323.9992 -127.999,799.998 -18,483.9987 -42,611.9984 -116,597.9984 -54,-9.9999 -126,-173.9995 -140,-319.9992 -8,-103.9997 -2,-161.9995 32,-275.9992 38,-123.9997 46,-201.9995 52,-537.9987 4,-313.9992 12,-409.9989 40,-477.9987 70,-171.9996 20,-349.9991 -169.999,-605.9985 -82,-113.9997 -104,-131.9997 -158,-131.9997 -122,0 -164,-69.9998 -225.999,-385.999 -40,-197.9995 -46,-195.9995 -423.999,169.9996 -184,177.9995 -230,333.9991 -152,505.9987 28,63.9998 34,97.9998 20,133.9997 -22,59.9998 -42,61.9998 -86,13.9999 -74,-81.9998 -134,-251.9993 -134,-383.999 v -127.9997 l 258,-251.9993 c 213.999,-205.9995 261.999,-261.9993 271.999,-323.9992 18,-95.9997 -16,-197.9995 -90,-263.9993 -34,-27.9999 -59.999,-61.9999 -59.999,-71.9998 0,-12 -40,-20 -88,-20 -118,0 -152,-45.9999 -152,-205.9995 0,-125.9996 -20,-147.9996 -110,-125.9996 -35.999,9.9999 -51.999,29.9999 -61.999,87.9997 -44,253.9994 -142,631.9984 -286,1121.9972 -137.999,465.9988 -167.999,883.9977 -85.999,1161.997 23.999,81.9998 49.999,213.9995 55.999,289.9993 12,139.9996 4,179.9995 -81.999,409.9989 -44,117.9997 -44,359.9991 0,675.9983 l 34,245.9993 -54,79.9998 c -102,155.9996 -146,81.9998 -200,-323.9991 -16,-135.9997 -36,-263.9994 -42,-283.9993 -6,-18 -48,-53.9999 -93.999,-75.9998 -190,-95.9998 -200,-151.9996 -44,-239.9994 157.999,-87.9998 229.999,-165.9996 229.999,-243.9994 -2,-95.9997 -32,-233.9994 -58,-259.9993 -34,-33.9999 -112,53.9999 -223.999,249.9994 -68,121.9996 -104,167.9995 -138,171.9995 -92,14 -92,-53.9998 0,-395.999 72,-273.9993 76,-287.9992 100,-569.9985 44,-513.9987 112,-993.9975 229.999,-1649.9958 l 12,-69.9998 -68,73.9998 c -75.999,85.9998 -249.999,389.999 -321.999,565.9986 -30,77.9998 -56,199.9994 -70,349.9991 -30,303.9992 -75.999,563.9985 -121.999,701.9982 -52,153.9996 -72,241.9993 -118,561.9985 -56,369.9991 -100,557.9986 -142,605.9985 -129.999,147.9996 -143.999,457.9988 -38,803.9979 38,119.9997 38,131.9997 8,177.9996 -37.999,57.9998 -59.999,49.9998 -75.999,-28 -6,-29.9999 -28,-77.9998 -50,-103.9997 l -38,-47.9999 -36,55.9999 c -20,29.9999 -56,133.9996 -80,229.9994 -26,95.9997 -62,201.9995 -82,233.9994 -57.999,85.9998 -47.999,287.9992 28,577.9985 36,131.9997 64,279.9993 64,329.9992 0,131.9996 -46,327.9991 -147.999,625.9984 -50,143.9996 -98,299.9992 -110,343.9991 -12,43.9999 -68,161.9996 -128,259.9993 -132,225.9994 -169.999,319.9992 -185.999,463.9988 -14,117.9997 -74,265.9993 -108,265.9993 -74,0 -32,-471.9987 60,-659.9983 18,-37.9999 48,-111.9997 64,-163.9995 l 29.999,-93.9998 -75.999,-51.9999 c -118,-75.9998 -100,-107.9997 81.999,-149.9996 172,-39.9999 180,-45.9999 180,-165.9996 0,-57.9998 28,-211.9994 60,-343.9991 34,-131.9996 60,-257.9993 60,-279.9993 0,-65.9998 -56,-127.9996 -128,-139.9996 -146,-27.9999 -273.999,103.9997 -363.999,375.999 -28,89.9998 -70,195.9995 -90,233.9994 -34,63.9999 -121.9995,337.9992 -189.9993,595.9985 -16,57.9999 -31.9999,169.9996 -39.9999,249.9994 -6,79.9998 -22,215.9994 -37.9999,303.9992 -16,87.9998 -37.9999,285.9993 -51.9999,439.9989 -11.9999,153.9996 -47.9999,433.9988 -79.9998,623.9984 -83.9998,501.9987 -89.9997,589.9985 -49.9998,689.9982 23.9999,64.0003 55.9998,99.9993 125.9996,143.9993 391.999,242 665.998,457.999 665.998,523.999 0,32 -62,68 -113.999,68 -18,0 -104,-72 -188,-160 -84,-88 -167.9995,-159.999 -185.9994,-159.999 -43.9999,0 -89.9998,77.999 -107.9997,181.999 -8,48 -24,84 -34,80 -11.9999,-4 -39.9999,-88 -63.9998,-190 -43.9999,-173.999 -89.9998,-269.999 -141.9996,-287.999 -12,-4 -45.9999,16 -73.9998,44 -41.9999,42 -47.9999,60 -34,116 8,36 14,151.999 14,255.999 0,315.999 -81.9998,379.999 -251.9993,200 l -93.9998,-100 -51.9999,44 c -123.9997,107.999 -79.9998,271.999 159.9996,597.998 151.9996,208 247.9994,409.999 287.9993,603.999 35.9999,179.999 -6,287.999 -55.9999,145.999 -13.9999,-38 -39.9999,-74 -59.9998,-81.999 -91.9998,-36 -259.9994,317.999 -237.9994,501.998 8,82 6,88 -37.9999,88 -26,0 -55.9999,-18 -67.9998,-38 z"
       id="path4"
       style="fill:#cccccc;stroke-width:1.99999" />
  </g>
</svg>
